<svg xmlns="http://www.w3.org/2000/svg" viewBox="0 0 220 220" width="220" height="220" aria-label="Arthur Murray dancers mark">
  
  <g fill="#0A0A0A">
    
    <path d="M138 38c4 0 8 3 8 8s-4 8-8 8-8-3-8-8 4-8 8-8z"></path>
    <path d="M148 56c-2-1-5-1-7 0l-12 6c-3 2-5 5-5 8 0 2 1 4 2 5l8 7-4 14c-1 4 1 8 5 9l3 1-9 30c-1 3 0 6 2 8l40 26c3 2 7 1 9-2 2-3 1-7-2-9l-32-22 8-26c14-2 23-12 26-22 1-4-2-8-6-9l-14-3-3-9c-1-5-5-9-9-12z"></path>
    
    <path d="M88 70c4 0 7 3 7 7s-3 7-7 7-7-3-7-7 3-7 7-7z"></path>
    <path d="M84 88c-3 0-6 2-7 5l-10 30c-1 4 1 7 5 8l8 2v40l-18 32c-2 3-1 7 2 9 3 2 7 1 9-2l16-28 4 6 10 28c1 3 5 5 8 4 4-1 6-5 5-9l-12-34c-1-2-2-3-4-4l-4-2v-32l8-2c4-1 6-5 4-9l-8-26c-1-3-4-6-7-6l-9-10z"></path>
    
    <path d="M120 130l38 70c1 2 0 4-2 4l-50 4c-3 0-5-3-3-5l13-72c1-3 4-3 4-1z" opacity="0.9"></path>
  </g>
</svg>